<svg xmlns="http://www.w3.org/2000/svg" width="29.999" height="24" viewBox="0 0 29.999 24">
  <defs>
    <style>
      .cls-1 {
        fill: #949494;
      }
    </style>
  </defs>
  <path id="Artists_and_Gallery" data-name="Artists and Gallery" class="cls-1" d="M12.023,10.147l4.064,5.119s-.778,4.8-3.591,7.036S0,23.9,0,23.9s.178-1.083.516-2.6L4.95,16.043a.281.281,0,0,0-.309-.445L1.809,16.634c.675-1.955,1.533-3.75,2.559-4.57,2.808-2.241,7.655-1.917,7.655-1.917Zm11.156,6.328A3.745,3.745,0,1,0,26.92,20.22,3.746,3.746,0,0,0,23.179,16.475ZM29.835,1.437,28.907.265a.751.751,0,0,0-1.05-.122l-10.9,8.339-1.6-2.016a.517.517,0,0,0-.872.1L13.3,9.129l4.064,5.119,2.756-.581a.515.515,0,0,0,.3-.825l-1.6-2.011,10.9-8.339A.751.751,0,0,0,29.835,1.437Z" transform="translate(0 0.017)"/>
</svg>
