<svg xmlns="http://www.w3.org/2000/svg" width="36" height="24" viewBox="0 0 36 24">
  <defs>
    <style>
      .cls-1 {
        fill: #949494;
      }
    </style>
  </defs>
  <path id="Community_News" data-name="Community News" class="cls-1" d="M34.5,64H7a3,3,0,0,0-2.828,2H1.5A1.5,1.5,0,0,0,0,67.5v17A3.5,3.5,0,0,0,3.5,88h31A1.5,1.5,0,0,0,36,86.5v-21A1.5,1.5,0,0,0,34.5,64ZM3,84.5V69H4V84.5a.5.5,0,0,1-1,0ZM33,85H6.964A3.527,3.527,0,0,0,7,84.5V67H33ZM10.75,77.5h8.5a.75.75,0,0,0,.75-.75v-6a.75.75,0,0,0-.75-.75h-8.5a.75.75,0,0,0-.75.75v6A.75.75,0,0,0,10.75,77.5Zm1.75-5h5V75h-5ZM10,81.25v-1.5a.75.75,0,0,1,.75-.75h8.5a.75.75,0,0,1,.75.75v1.5a.75.75,0,0,1-.75.75h-8.5A.75.75,0,0,1,10,81.25Zm12,0v-1.5a.75.75,0,0,1,.75-.75h6.5a.75.75,0,0,1,.75.75v1.5a.75.75,0,0,1-.75.75h-6.5A.75.75,0,0,1,22,81.25Zm0-9v-1.5a.75.75,0,0,1,.75-.75h6.5a.75.75,0,0,1,.75.75v1.5a.75.75,0,0,1-.75.75h-6.5A.75.75,0,0,1,22,72.25Zm0,4.5v-1.5a.75.75,0,0,1,.75-.75h6.5a.75.75,0,0,1,.75.75v1.5a.75.75,0,0,1-.75.75h-6.5A.75.75,0,0,1,22,76.75Z" transform="translate(0 -64)"/>
</svg>
