<svg xmlns="http://www.w3.org/2000/svg" width="24" height="24.004" viewBox="0 0 24 24.004">
  <defs>
    <style>
      .cls-1 {
        fill: #949494;
      }
    </style>
  </defs>
  <path id="Community-culture" class="cls-1" d="M21,11H16a3,3,0,0,0-3,3v7a3,3,0,0,0,3,3l5,0a3,3,0,0,0,3-3V14a3,3,0,0,0-3-3Zm-4,3h3a1,1,0,0,1,0,2H17a1,1,0,0,1,0-2Zm3,6H17a1,1,0,0,1-1-1h0a1,1,0,0,1,1-1h3a1,1,0,0,1,1,1v0A1,1,0,0,1,20,20ZM9,12A6,6,0,1,0,3,6a6.006,6.006,0,0,0,6,6ZM9,3A3,3,0,1,1,6,6,3,3,0,0,1,9,3Zm2,12.472A1.5,1.5,0,0,1,9.528,17l-1.047.02A6.009,6.009,0,0,0,3,22.6,1.5,1.5,0,0,1,1.5,24c-.034,0-.067,0-.1,0A1.5,1.5,0,0,1,0,22.4a9.037,9.037,0,0,1,8.343-8.377L9.472,14A1.469,1.469,0,0,1,11,15.473Z" transform="translate(0)"/>
</svg>
