<svg xmlns="http://www.w3.org/2000/svg" width="34.286" height="24" viewBox="0 0 34.286 24">
  <defs>
    <style>
      .cls-1 {
        fill: #949494;
      }
    </style>
  </defs>
  <path id="Community_culture" data-name="Community culture" class="cls-1" d="M10.971,72.914a1.714,1.714,0,1,0-2.743,2.057l2.041,2.721a.856.856,0,0,1-.08,1.12L9.5,79.5a.852.852,0,0,1-1.264-.059L3.429,73.664v-7.95a1.714,1.714,0,1,0-3.429,0v11.7a2.574,2.574,0,0,0,.563,1.607l5.577,7.195A3.2,3.2,0,0,1,6.7,87.379a.839.839,0,0,0,.82.621h7.055a.86.86,0,0,0,.857-.857v-6a6.868,6.868,0,0,0-1.371-4.114l-3.086-4.114ZM32.571,64a1.712,1.712,0,0,0-1.714,1.714v7.95l-4.811,5.775a.86.86,0,0,1-1.264.059l-.686-.686a.856.856,0,0,1-.08-1.12l2.041-2.721a1.714,1.714,0,1,0-2.743-2.057l-3.086,4.114a6.868,6.868,0,0,0-1.371,4.114v6a.86.86,0,0,0,.857.857H26.77a.844.844,0,0,0,.82-.621,3.2,3.2,0,0,1,.557-1.162l5.577-7.195a2.574,2.574,0,0,0,.563-1.607v-11.7A1.712,1.712,0,0,0,32.571,64Z" transform="translate(0 -64)"/>
</svg>
