<svg xmlns="http://www.w3.org/2000/svg" width="30" height="30" viewBox="0 0 30 30">
  <defs>
    <style>
      .cls-1 {
        fill: #00fff2;
      }
    </style>
  </defs>
  <path id="content-feedback" class="cls-1" d="M15,30A14.994,14.994,0,0,1,4.394,4.393,15,15,0,1,1,20.839,28.821,14.9,14.9,0,0,1,15,30ZM21.171,7.8a5.149,5.149,0,0,0-5.143,5.143v7.715A1.544,1.544,0,0,0,17.571,22.2h4.114a1.545,1.545,0,0,0,1.544-1.543V16.543A1.546,1.546,0,0,0,21.685,15H19.113V12.943a2.06,2.06,0,0,1,2.058-2.058h.258a.772.772,0,0,0,.771-.771V8.571a.772.772,0,0,0-.771-.771Zm-9.258,0a5.149,5.149,0,0,0-5.142,5.143v7.715A1.545,1.545,0,0,0,8.315,22.2h4.114a1.545,1.545,0,0,0,1.543-1.543V16.543A1.545,1.545,0,0,0,12.429,15H9.858V12.943a2.059,2.059,0,0,1,2.056-2.058h.258a.772.772,0,0,0,.771-.771V8.571a.772.772,0,0,0-.771-.771Z"/>
</svg>
