<svg xmlns="http://www.w3.org/2000/svg" width="29.405" height="25.726" viewBox="0 0 29.405 25.726">
  <defs>
    <style>
      .cls-1 {
        fill: #fff;
      }
    </style>
  </defs>
  <path id="Contact" class="cls-1" d="M8.207,42.107a1.838,1.838,0,1,0,1.838,1.838A1.836,1.836,0,0,0,8.207,42.107Zm6.431,0a1.838,1.838,0,1,0,1.838,1.838A1.836,1.836,0,0,0,14.638,42.107Zm6.431,0a1.838,1.838,0,1,0,1.838,1.838A1.836,1.836,0,0,0,21.069,42.107ZM14.638,32c-8.12,0-14.7,5.346-14.7,11.944A10.556,10.556,0,0,0,2.975,51.2,14.572,14.572,0,0,1,.311,55.4a1.379,1.379,0,0,0,1,2.326A13.933,13.933,0,0,0,9.3,55.067a17.735,17.735,0,0,0,5.335.821c8.12,0,14.7-5.346,14.7-11.944S22.758,32,14.638,32Zm0,21.132a14.922,14.922,0,0,1-4.5-.695l-1.3-.413-1.12.792a12.348,12.348,0,0,1-3.3,1.665,14.4,14.4,0,0,0,1.143-2.308l.609-1.614L4.979,49.308a7.9,7.9,0,0,1-2.285-5.363c0-5.065,5.358-9.188,11.944-9.188s11.944,4.123,11.944,9.188S21.225,53.132,14.638,53.132Z" transform="translate(0.066 -32)"/>
</svg>
