<svg xmlns="http://www.w3.org/2000/svg" width="30" height="30" viewBox="0 0 30 30">
  <defs>
    <style>
      .cls-1 {
        fill: #00fff2;
      }
    </style>
  </defs>
  <path id="copy-link" class="cls-1" d="M15,30A14.994,14.994,0,0,1,4.394,4.393,15,15,0,1,1,20.839,28.821,14.9,14.9,0,0,1,15,30ZM10.41,13.728a.442.442,0,0,0-.315.132L9.05,14.9A4.275,4.275,0,0,0,15.1,20.95l1.89-1.89.005-.005L17,19.049a4.28,4.28,0,0,0-.588-6.519.452.452,0,0,0-.26-.082.447.447,0,0,0-.317.131l-.593.593a1.115,1.115,0,0,0-.329.838.452.452,0,0,0,.2.355,2.057,2.057,0,0,1,.291.241,2.027,2.027,0,0,1,0,2.864l-1.89,1.89a2.027,2.027,0,0,1-2.878-.015,2.044,2.044,0,0,1,.032-2.868l.368-.368a.448.448,0,0,0,.107-.466,5.18,5.18,0,0,1-.272-1.483A.45.45,0,0,0,10.41,13.728ZM17.927,7.8A4.25,4.25,0,0,0,14.9,9.05l-1.888,1.89-.005.005L13,10.951a4.281,4.281,0,0,0,.011,6.035,4.173,4.173,0,0,0,.577.483.45.45,0,0,0,.262.083.443.443,0,0,0,.316-.131l.593-.592a1.123,1.123,0,0,0,.33-.838.458.458,0,0,0-.2-.355,2.138,2.138,0,0,1-.291-.242,2.027,2.027,0,0,1,0-2.863l1.89-1.89a2.026,2.026,0,0,1,2.877.015,2.043,2.043,0,0,1-.031,2.868l-.368.368a.449.449,0,0,0-.107.466,5.135,5.135,0,0,1,.272,1.483.449.449,0,0,0,.452.43.442.442,0,0,0,.316-.133L20.949,15.1a4.273,4.273,0,0,0-3.022-7.3Z"/>
</svg>
