<svg xmlns="http://www.w3.org/2000/svg" width="23.995" height="24" viewBox="0 0 23.995 24">
  <defs>
    <style>
      .cls-1 {
        fill: #fff;
      }
    </style>
  </defs>
  <path id="FontAwsome_globe_" data-name="FontAwsome (globe)" class="cls-1" d="M16.282,15.355C15.581,11.034,13.926,8,12,8s-3.581,3.034-4.282,7.355ZM7.355,20a30.328,30.328,0,0,0,.16,3.1h8.966a30.328,30.328,0,0,0,.16-3.1,30.329,30.329,0,0,0-.16-3.1H7.515A30.329,30.329,0,0,0,7.355,20Zm15.711-4.645A12.025,12.025,0,0,0,15.421,8.5a16.331,16.331,0,0,1,2.419,6.852ZM8.574,8.5a12.017,12.017,0,0,0-7.64,6.852H6.16A16.265,16.265,0,0,1,8.574,8.5Zm15.01,8.4h-5.55c.1,1.016.16,2.056.16,3.1s-.058,2.081-.16,3.1h5.545A11.9,11.9,0,0,0,24,20a12.1,12.1,0,0,0-.411-3.1ZM5.806,20c0-1.04.058-2.081.16-3.1H.416a11.731,11.731,0,0,0,0,6.194H5.961C5.865,22.081,5.806,21.04,5.806,20Zm1.911,4.645C8.419,28.966,10.074,32,12,32s3.581-3.034,4.282-7.355ZM15.426,31.5a12.037,12.037,0,0,0,7.645-6.852H17.845A16.331,16.331,0,0,1,15.426,31.5ZM.934,24.645A12.025,12.025,0,0,0,8.579,31.5,16.331,16.331,0,0,1,6.16,24.645H.934Z" transform="translate(0 -8)"/>
</svg>
