<svg xmlns="http://www.w3.org/2000/svg" width="27" height="24" viewBox="0 0 27 24">
  <defs>
    <style>
      .cls-1 {
        fill: #949494;
      }
    </style>
  </defs>
  <path id="How_to_contribute" data-name="How to contribute" class="cls-1" d="M12.9,11.721a.817.817,0,0,0,1.2,0l5.1-5.353A3.885,3.885,0,0,0,18.941.8a3.563,3.563,0,0,0-4.917.361l-.525.548-.52-.544A3.559,3.559,0,0,0,8.062.8,3.889,3.889,0,0,0,7.8,6.368ZM26.5,15.358a1.552,1.552,0,0,0-2,0l-4.331,3.464a2.984,2.984,0,0,1-1.875.656H12.749a.75.75,0,1,1,0-1.5h3.67a1.561,1.561,0,0,0,1.561-1.247A1.5,1.5,0,0,0,16.5,14.979H9a5.517,5.517,0,0,0-3.473,1.233l-2.18,1.767H.75a.752.752,0,0,0-.75.75v4.5a.752.752,0,0,0,.75.75H17.474a3,3,0,0,0,1.875-.656l7.087-5.672A1.5,1.5,0,0,0,26.5,15.358Z" transform="translate(0 0.022)"/>
</svg>
