<svg xmlns="http://www.w3.org/2000/svg" width="24.002" height="24" viewBox="0 0 24.002 24">
  <defs>
    <style>
      .cls-1 {
        fill: #949494;
      }
    </style>
  </defs>
  <path id="How-to-contribute" class="cls-1" d="M9.5,2.5A2.5,2.5,0,1,1,12,5,2.5,2.5,0,0,1,9.5,2.5Zm1.873,8.628a.887.887,0,0,0,1.255,0l1.42-1.42A5.8,5.8,0,0,1,16,8.42V8a2,2,0,0,0-2-2H10A2,2,0,0,0,8,8v.461a6.055,6.055,0,0,1,2.033,1.327ZM21.513,4a2.5,2.5,0,0,0-2.5,2.5v3.605a3.823,3.823,0,0,0-3.551,1.017L11.98,14.6c-.155-.177-.313-.354-.486-.527L8.617,11.2a3.952,3.952,0,0,0-3.6-1.1V6.5a2.5,2.5,0,0,0-5,0V17.515a7.445,7.445,0,0,0,2.2,5.3l.742.743a1.5,1.5,0,0,0,2.122-2.122L4.332,20.7a4.463,4.463,0,0,1-1.318-3.182V16.4L5.457,18.82A1.5,1.5,0,0,0,7.57,16.69L5.121,14.259a.831.831,0,0,1,.24-1.115.92.92,0,0,1,1.137.178L9.375,16.2A4.849,4.849,0,0,1,11,19.689V22.5a1.5,1.5,0,0,0,3,0v-2.81a7.18,7.18,0,0,0-.429-2.436l4.012-4.012a.85.85,0,0,1,1.174,0,.835.835,0,0,1,.123,1.017l-2.424,2.4a1.5,1.5,0,0,0,2.113,2.13l2.443-2.424v1.144A4.472,4.472,0,0,1,19.7,20.7l-.743.743a1.5,1.5,0,0,0,2.122,2.122l.743-.743a7.45,7.45,0,0,0,2.2-5.3V6.5a2.5,2.5,0,0,0-2.5-2.5Z" transform="translate(-0.013)"/>
</svg>
