<svg xmlns="http://www.w3.org/2000/svg" width="40" height="24" viewBox="0 0 40 24">
  <defs>
    <style>
      .cls-1 {
        fill: #949494;
      }
    </style>
  </defs>
  <path id="Learn_about_monad" data-name="Learn about monad" class="cls-1" d="M38.9,69.573,21.467,64.216a4.993,4.993,0,0,0-2.924,0L1.108,69.573a1.471,1.471,0,0,0,0,2.849l3.039.934A4.925,4.925,0,0,0,3.03,76.287,1.929,1.929,0,0,0,2.871,79.6l-1.6,7.18A1,1,0,0,0,2.251,88H5.758a1,1,0,0,0,.976-1.217l-1.6-7.18a1.924,1.924,0,0,0-.112-3.282,2.948,2.948,0,0,1,1.293-2.295l12.223,3.756a5,5,0,0,0,2.924,0L38.9,72.423A1.472,1.472,0,0,0,38.9,69.573ZM22.054,79.691a7,7,0,0,1-4.1,0L8.891,76.906,8,84c0,2.209,5.372,4,12,4s12-1.791,12-4l-.886-7.092Z" transform="translate(-0.005 -63.997)"/>
</svg>
