<svg xmlns="http://www.w3.org/2000/svg" width="24" height="24.001" viewBox="0 0 24 24.001">
  <defs>
    <style>
      .cls-1 {
        fill: #949494;
      }
    </style>
  </defs>
  <path id="Monacomics" class="cls-1" d="M1.168,6.834A4,4,0,0,1,6.831,1.173L9.637,3.979A1.5,1.5,0,0,1,7.516,6.1L4.709,3.293a1.017,1.017,0,0,0-1.419,0,1.009,1.009,0,0,0,0,1.422L6.1,7.521A1.5,1.5,0,0,1,3.974,9.642L1.167,6.835Zm18.911,7.587a1.5,1.5,0,1,0-2.121,2.121l2.307,2.307A2.483,2.483,0,0,1,21,20.617V21h-.385a2.522,2.522,0,0,1-1.768-.732l-2.307-2.306a1.5,1.5,0,0,0-2.121,2.121l2.307,2.306A5.464,5.464,0,0,0,20.612,24H22.5A1.5,1.5,0,0,0,24,22.5V20.617a5.464,5.464,0,0,0-1.611-3.889l-2.307-2.307ZM11.96,17.673a5.5,5.5,0,0,1-1.621,3.82C8.532,23.3,3.49,23.95,3.277,23.976A2.914,2.914,0,0,1,.024,20.722C.05,20.509.7,15.467,2.507,13.66a5.5,5.5,0,0,1,3.82-1.621L17.2,1.167A3.984,3.984,0,0,1,22.833,6.8L11.959,17.673ZM9.582,13.027a5.605,5.605,0,0,1,1.391,1.391L20.712,4.68A.984.984,0,1,0,19.32,3.288L9.582,13.026ZM8.218,15.782a2.542,2.542,0,0,0-3.59,0c-.556.556-1.33,3.061-1.613,5.2,2.143-.283,4.647-1.058,5.2-1.613a2.543,2.543,0,0,0,0-3.59Z" transform="translate(0.003)"/>
</svg>
