<svg xmlns="http://www.w3.org/2000/svg" width="30.003" height="24" viewBox="0 0 30.003 24">
  <defs>
    <style>
      .cls-1 {
        fill: #949494;
      }
    </style>
  </defs>
  <path id="Monad_ecosystem" data-name="Monad ecosystem" class="cls-1" d="M22.855,9.021H15.73v2.625a3.375,3.375,0,0,1-6.751,0v-5.7L5.937,7.774a2.994,2.994,0,0,0-1.458,2.569v2.217L.728,14.727A1.5,1.5,0,0,0,.18,16.775l3.75,6.5a1.5,1.5,0,0,0,2.049.548l4.847-2.8h6.4a3,3,0,0,0,3-3h.75a1.5,1.5,0,0,0,1.5-1.5v-3h.375A1.122,1.122,0,0,0,23.98,12.4v-2.25A1.122,1.122,0,0,0,22.855,9.021Zm6.924-1.753-3.75-6.5A1.5,1.5,0,0,0,23.98.222l-4.847,2.8H14.342a3.023,3.023,0,0,0-1.589.455l-1.57.98a1.49,1.49,0,0,0-.7,1.27v5.921a1.875,1.875,0,0,0,3.75,0V7.521h8.626a2.627,2.627,0,0,1,2.625,2.625v1.336l3.75-2.166A1.5,1.5,0,0,0,29.779,7.268Z" transform="translate(0.023 -0.022)"/>
</svg>
