<svg xmlns="http://www.w3.org/2000/svg" width="24" height="24.001" viewBox="0 0 24 24.001">
  <defs>
    <style>
      .cls-1 {
        fill: #949494;
      }
    </style>
  </defs>
  <path id="Monad-media-kit" class="cls-1" d="M20.39,12.039a3.992,3.992,0,0,0-.248-5.353L17.313,3.857a3.993,3.993,0,0,0-5.353-.248A3.991,3.991,0,0,0,8,0H4A4.005,4.005,0,0,0,0,4V18a6.006,6.006,0,0,0,6,6H20a4,4,0,0,0,4-4V16A3.992,3.992,0,0,0,20.39,12.039Zm-5.2-6.06,2.829,2.829a1,1,0,0,1,0,1.415L12,16.244V7.757l1.778-1.778a1,1,0,0,1,1.415,0ZM3,9H9v3H3V9ZM4,3H8A1,1,0,0,1,9,4V6H3V4A1,1,0,0,1,4,3ZM3,18V15H9v3a3,3,0,0,1-6,0Zm18,2a1,1,0,0,1-1,1H11.485l6-6H20a1,1,0,0,1,1,1v4ZM6,19.5A1.5,1.5,0,1,1,7.5,18,1.5,1.5,0,0,1,6,19.5Z" transform="translate(0 0.001)"/>
</svg>
