<svg xmlns="http://www.w3.org/2000/svg" width="24.002" height="24" viewBox="0 0 24.002 24">
  <defs>
    <style>
      .cls-1 {
        fill: #949494;
      }
    </style>
  </defs>
  <path id="Monad-ecosystem" class="cls-1" d="M7.726,3.047l.619-1a4.326,4.326,0,0,1,7.311,0l2.131,3.392,1.358-.928a1.5,1.5,0,0,1,2.32,1.517l-.736,3.948a2.006,2.006,0,0,1-1.962,1.64c-.13,0-4.3-.809-4.3-.809a1.5,1.5,0,0,1-.556-2.714l1.395-.954-2.2-3.5A1.3,1.3,0,0,0,10.9,3.63l-.621,1A1.5,1.5,0,1,1,7.726,3.047ZM23.353,14.481l-.578-.932a1.5,1.5,0,1,0-2.55,1.582l.578.933a1.294,1.294,0,0,1-1.1,1.972H15V16.522a1.5,1.5,0,0,0-2.522-1.1L9.7,18.016a2,2,0,0,0-.039,3l2.818,2.619A1.5,1.5,0,0,0,15,22.53V21.04h4.7a4.3,4.3,0,0,0,3.657-6.559ZM8.1,8.392A2.008,2.008,0,0,0,5.744,6.8l-3.906.77a1.5,1.5,0,0,0-.556,2.715l1.38.943L.648,14.481A4.3,4.3,0,0,0,4.321,21.04l1.194-.012a1.5,1.5,0,0,0-.03-3L4.3,18.036a1.294,1.294,0,0,1-1.1-1.973l1.944-3.14,1.372.938a1.5,1.5,0,0,0,2.32-1.516Z" transform="translate(0.003 -0.033)"/>
</svg>
