<svg xmlns="http://www.w3.org/2000/svg" width="30.857" height="24" viewBox="0 0 30.857 24">
  <defs>
    <style>
      .cls-1 {
        fill: #fff;
      }
    </style>
  </defs>
  <path id="Readmore_icon" data-name="Readmore icon" class="cls-1" d="M30.755,45.3l-2.429-9.734a4.711,4.711,0,0,0-6.064-3.329l-.817.272a.857.857,0,0,0-.542,1.084l.271.813a.857.857,0,0,0,1.084.542l.706-.235a2.291,2.291,0,0,1,1.776.093,2.123,2.123,0,0,1,1.091,1.383l2.06,8.24a14.825,14.825,0,0,0-4.35-.667,14.051,14.051,0,0,0-6.153,1.432h-3.92A14.038,14.038,0,0,0,7.316,43.76a14.826,14.826,0,0,0-4.35.667l2.06-8.241A2.121,2.121,0,0,1,6.117,34.8a2.29,2.29,0,0,1,1.776-.093l.706.235A.857.857,0,0,0,9.682,34.4l.271-.813a.857.857,0,0,0-.542-1.084l-.817-.272a4.711,4.711,0,0,0-6.064,3.328L.1,45.3a3.44,3.44,0,0,0-.1.83v3.763a6.137,6.137,0,0,0,6.171,6.1H8.16a6.143,6.143,0,0,0,6.154-5.645l.157-2.069h1.915l.157,2.069A6.142,6.142,0,0,0,22.7,55.993h1.989a6.137,6.137,0,0,0,6.171-6.1V46.129A3.441,3.441,0,0,0,30.755,45.3ZM10.9,50.089A2.726,2.726,0,0,1,8.16,52.564H6.171a2.712,2.712,0,0,1-2.743-2.673V47.88a11.629,11.629,0,0,1,3.888-.692,10.511,10.511,0,0,1,3.746.692L10.9,50.089Zm16.533-.2a2.711,2.711,0,0,1-2.743,2.672H22.7a2.725,2.725,0,0,1-2.735-2.475l-.168-2.208a10.514,10.514,0,0,1,3.747-.692,11.628,11.628,0,0,1,3.887.693v2.011Z" transform="translate(0 -31.993)"/>
</svg>
