<svg xmlns="http://www.w3.org/2000/svg" width="24" height="24" viewBox="0 0 24 24">
  <defs>
    <style>
      .cls-1 {
        fill: #949494;
      }
    </style>
  </defs>
  <path id="Team-members" class="cls-1" d="M18,12a6,6,0,1,0,6,6A6,6,0,0,0,18,12Zm3.683,5.712-2.7,2.614A2.348,2.348,0,0,1,17.327,21a2.375,2.375,0,0,1-1.663-.674L14.31,18.991a1,1,0,1,1,1.4-1.428l1.354,1.331a.374.374,0,0,0,.522,0L20.3,16.268a1,1,0,0,1,1.385,1.443ZM2,8a3,3,0,1,1,3,3A3,3,0,0,1,2,8ZM12,3a3,3,0,1,1,3,3A3,3,0,0,1,12,3ZM10,17.5a1.5,1.5,0,0,1-3,0c0-.417-.1-2.5-2-2.5s-2,2.083-2,2.5a1.5,1.5,0,0,1-3,0C0,14.851,1.564,12,5,12S10,14.851,10,17.5ZM11.6,13a1.5,1.5,0,0,1-1.474-1.788A4.845,4.845,0,0,1,15,7a4.694,4.694,0,0,1,3.536,1.478,1.5,1.5,0,1,1-2.195,2.044A1.729,1.729,0,0,0,15,10a1.884,1.884,0,0,0-1.932,1.788A1.5,1.5,0,0,1,11.6,13Z"/>
</svg>
