<svg xmlns="http://www.w3.org/2000/svg" width="30" height="30" viewBox="0 0 30 30">
  <defs>
    <style>
      .cls-1 {
        fill: #00fff2;
      }
    </style>
  </defs>
  <path id="Twitter-share" class="cls-1" d="M15,30A14.994,14.994,0,0,1,4.394,4.393,15,15,0,1,1,20.839,28.821,14.9,14.9,0,0,1,15,30ZM16.8,7.8a.767.767,0,0,0-.776.772v2.573c-4.578.053-9.257.8-9.257,5.986a6.627,6.627,0,0,0,2.679,4.955A.581.581,0,0,0,9.8,22.2a.608.608,0,0,0,.482-.241.518.518,0,0,0,.074-.472c-.619-1.979-.593-3.393.079-4.321A3.593,3.593,0,0,1,12.5,15.909a14.5,14.5,0,0,1,3.531-.392v2.825a.767.767,0,0,0,.776.772.755.755,0,0,0,.5-.188l5.658-4.886a.771.771,0,0,0,0-1.167L17.3,7.988A.755.755,0,0,0,16.8,7.8Z"/>
</svg>
