<svg xmlns="http://www.w3.org/2000/svg" width="19.876" height="15.902" viewBox="0 0 19.876 15.902">
  <defs>
    <style>
      .cls-1 {
        fill: #9b9a9e;
      }
    </style>
  </defs>
  <path id="Writer" class="cls-1" d="M6.957,7.951A3.975,3.975,0,1,0,2.982,3.975,3.975,3.975,0,0,0,6.957,7.951Zm2.783.994H9.221a5.406,5.406,0,0,1-4.528,0H4.174A4.175,4.175,0,0,0,0,13.119v1.292A1.491,1.491,0,0,0,1.491,15.9h8.538a1.491,1.491,0,0,1-.081-.662l.211-1.891L10.2,13l.245-.245,2.4-2.4A4.132,4.132,0,0,0,9.74,8.945Zm1.407,4.513-.211,1.895a.494.494,0,0,0,.547.547l1.891-.211L17.657,11.4,15.43,9.178ZM19.66,8.352,18.483,7.174a.744.744,0,0,0-1.05,0L16.259,8.348l-.127.127,2.23,2.227,1.3-1.3A.748.748,0,0,0,19.66,8.352Z"/>
</svg>
